normal_gait
version=1
nRows=51
nColumns=18
inDegrees=yes
endheader
time	pelvis_list	pelvis_rotation	pelvis_tilt	hip_flexion_r	hip_adduction_r	hip_rotation_r	knee_angle_r	ankle_angle_r	hip_flexion_l	hip_adduction_l	hip_rotation_l	knee_angle_l	ankle_angle_l	pelvis_ty	lumbar_bending	lumbar_rotation	lumbar_extension
0	-0.47	2.43	-1.87	24.61	1.09	-1.35	-3.94	-1.7	-16.56	2.68	1.28	-8.2	9.81	0.96	0.47	-2.43	1.87
0.02	-0.87	2.56	-1.81	24.45	1.59	-0.37	-6.66	-3.25	-16.82	1.94	1.41	-11.29	8.26	0.96	0.87	-2.56	1.81
0.04	-1.4	2.52	-1.71	24.13	2.22	1.36	-9.45	-4.68	-16.53	0.99	1.16	-15.19	5.52	0.96	1.4	-2.52	1.71
0.06	-2.06	2.29	-1.59	23.68	3.01	3.02	-12.26	-5.08	-15.4	-0.19	0.41	-20.17	1.11	0.96	2.06	-2.29	1.59
0.08	-2.76	1.97	-1.47	22.96	3.92	3.99	-14.76	-4.17	-13.44	-1.48	-0.48	-26.06	-4.36	0.96	2.76	-1.97	1.47
0.1	-3.37	1.73	-1.39	21.78	4.78	4.23	-16.37	-2.5	-10.65	-2.69	-0.99	-32.67	-9.73	0.96	3.37	-1.73	1.39
0.12	-3.82	1.66	-1.38	20.24	5.45	4.18	-17.04	-0.83	-7.15	-3.62	-0.66	-39.6	-13.37	0.96	3.82	-1.66	1.38
0.14	-4.08	1.75	-1.43	18.41	5.85	3.83	-16.93	0.65	-3.16	-4.1	0.31	-46.16	-14.07	0.96	4.08	-1.75	1.43
0.16	-4.1	1.94	-1.52	16.38	6.01	3.23	-16.24	1.92	0.95	-4.16	1.09	-51.68	-12.62	0.96	4.1	-1.94	1.52
0.18	-3.89	2.12	-1.64	14.19	5.96	2.72	-15.15	2.98	4.93	-3.88	1.09	-55.66	-10.16	0.96	3.89	-2.12	1.64
0.2	-3.49	2.24	-1.75	11.91	5.8	2.4	-13.87	3.88	8.63	-3.38	0.33	-57.83	-7.6	0.96	3.49	-2.24	1.75
0.22	-2.96	2.29	-1.87	9.58	5.57	2.14	-12.46	4.64	11.96	-2.79	-0.74	-58.25	-5.28	0.96	2.96	-2.29	1.87
0.24	-2.37	2.25	-1.96	7.22	5.31	1.83	-10.95	5.25	14.96	-2.18	-1.71	-57.28	-3.2	0.96	2.37	-2.25	1.96
0.26	-1.78	2.13	-2.06	4.87	5.06	1.5	-9.42	5.78	17.62	-1.61	-2.48	-55.06	-1.34	0.96	1.78	-2.13	2.06
0.28	-1.25	1.95	-2.15	2.57	4.83	1.21	-7.96	6.28	19.89	-1.1	-3.11	-51.58	0.23	0.96	1.25	-1.95	2.15
0.3	-0.78	1.72	-2.26	0.33	4.64	0.96	-6.59	6.78	21.76	-0.66	-3.7	-46.99	1.44	0.96	0.78	-1.72	2.26
0.32	-0.41	1.43	-2.36	-1.85	4.49	0.71	-5.37	7.3	23.24	-0.28	-4.35	-41.48	2.24	0.96	0.41	-1.43	2.36
0.34	-0.13	1.08	-2.45	-3.98	4.38	0.45	-4.29	7.86	24.33	0.03	-4.98	-35.19	2.58	0.96	0.13	-1.08	2.45
0.36	0.06	0.65	-2.52	-6.06	4.31	0.2	-3.4	8.44	24.98	0.27	-5.28	-28.31	2.39	0.96	-0.06	-0.65	2.52
0.38	0.18	0.15	-2.56	-8.1	4.26	-0.01	-2.72	9.05	25.26	0.44	-4.96	-21.23	1.83	0.96	-0.18	-0.15	2.56
0.4	0.24	-0.45	-2.55	-10.06	4.2	-0.09	-2.37	9.63	25.25	0.53	-4.03	-14.44	1.16	0.96	-0.24	0.45	2.55
0.42	0.28	-1.09	-2.49	-11.88	4.11	-0.02	-2.44	10.16	25.04	0.57	-2.81	-8.48	0.54	0.96	-0.28	1.09	2.49
0.44	0.32	-1.73	-2.41	-13.5	3.95	0.21	-3	10.56	24.8	0.59	-1.85	-4.3	0.18	0.96	-0.32	1.73	2.41
0.46	0.39	-2.32	-2.33	-14.85	3.68	0.56	-4.08	10.75	24.66	0.67	-1.38	-2.27	0.07	0.96	-0.39	2.32	2.33
0.48	0.54	-2.78	-2.26	-15.88	3.26	0.95	-5.83	10.54	24.66	0.86	-1.27	-2.35	-0.01	0.96	-0.54	2.78	2.26
0.5	0.79	-3.11	-2.19	-16.56	2.68	1.28	-8.2	9.81	24.7	1.18	-1.21	-4.14	-0.5	0.96	-0.79	3.11	2.19
0.52	1.17	-3.27	-2.1	-16.82	1.94	1.41	-11.29	8.26	24.61	1.09	-1.35	-3.94	-1.7	0.96	-1.17	3.27	2.1
0.54	1.69	-3.25	-1.98	-16.53	0.99	1.16	-15.19	5.52	24.45	1.59	-0.37	-6.66	-3.25	0.96	-1.69	3.25	1.98
0.56	2.34	-3.05	-1.81	-15.4	-0.19	0.41	-20.17	1.11	24.13	2.22	1.36	-9.45	-4.68	0.96	-2.34	3.05	1.81
0.58	3.01	-2.81	-1.64	-13.44	-1.48	-0.48	-26.06	-4.36	23.68	3.01	3.02	-12.26	-5.08	0.96	-3.01	2.81	1.64
0.6	3.61	-2.66	-1.52	-10.65	-2.69	-0.99	-32.67	-9.73	22.96	3.92	3.99	-14.76	-4.17	0.96	-3.61	2.66	1.52
0.62	4.07	-2.68	-1.49	-7.15	-3.62	-0.66	-39.6	-13.37	21.78	4.78	4.23	-16.37	-2.5	0.96	-4.07	2.68	1.49
0.64	4.35	-2.87	-1.54	-3.16	-4.1	0.31	-46.16	-14.07	20.24	5.45	4.18	-17.04	-0.83	0.96	-4.35	2.87	1.54
0.66	4.42	-3.14	-1.63	0.95	-4.16	1.09	-51.68	-12.62	18.41	5.85	3.83	-16.93	0.65	0.96	-4.42	3.14	1.63
0.68	4.26	-3.37	-1.74	4.93	-3.88	1.09	-55.66	-10.16	16.38	6.01	3.23	-16.24	1.92	0.96	-4.26	3.37	1.74
0.7	3.88	-3.52	-1.84	8.63	-3.38	0.33	-57.83	-7.6	14.19	5.96	2.72	-15.15	2.98	0.96	-3.88	3.52	1.84
0.72	3.36	-3.57	-1.94	11.96	-2.79	-0.74	-58.25	-5.28	11.91	5.8	2.4	-13.87	3.88	0.96	-3.36	3.57	1.94
0.74	2.78	-3.54	-2.02	14.96	-2.18	-1.71	-57.28	-3.2	9.58	5.57	2.14	-12.46	4.64	0.96	-2.78	3.54	2.02
0.76	2.2	-3.45	-2.09	17.62	-1.61	-2.48	-55.06	-1.34	7.22	5.31	1.83	-10.95	5.25	0.96	-2.2	3.45	2.09
0.78	1.68	-3.3	-2.14	19.89	-1.1	-3.11	-51.58	0.23	4.87	5.06	1.5	-9.42	5.78	0.96	-1.68	3.3	2.14
0.8	1.24	-3.1	-2.18	21.76	-0.66	-3.7	-46.99	1.44	2.57	4.83	1.21	-7.96	6.28	0.96	-1.24	3.1	2.18
0.82	0.89	-2.87	-2.23	23.24	-0.28	-4.35	-41.48	2.24	0.33	4.64	0.96	-6.59	6.78	0.96	-0.89	2.87	2.23
0.84	0.65	-2.6	-2.29	24.33	0.03	-4.98	-35.19	2.58	-1.85	4.49	0.71	-5.37	7.3	0.96	-0.65	2.6	2.29
0.86	0.51	-2.27	-2.34	24.98	0.27	-5.28	-28.31	2.39	-3.98	4.38	0.45	-4.29	7.86	0.96	-0.51	2.27	2.34
0.88	0.44	-1.88	-2.35	25.26	0.44	-4.96	-21.23	1.83	-6.06	4.31	0.2	-3.4	8.44	0.96	-0.44	1.88	2.35
0.9	0.41	-1.42	-2.33	25.25	0.53	-4.03	-14.44	1.16	-8.1	4.26	-0.01	-2.72	9.05	0.96	-0.41	1.42	2.33
0.92	0.42	-0.9	-2.26	25.04	0.57	-2.81	-8.48	0.54	-10.06	4.2	-0.09	-2.37	9.63	0.96	-0.42	0.9	2.26
0.94	0.41	-0.39	-2.17	24.8	0.59	-1.85	-4.3	0.18	-11.88	4.11	-0.02	-2.44	10.16	0.96	-0.41	0.39	2.17
0.96	0.36	0.07	-2.08	24.66	0.67	-1.38	-2.27	0.07	-13.5	3.95	0.21	-3	10.56	0.96	-0.36	-0.07	2.08
0.98	0.23	0.46	-2.08	24.66	0.86	-1.27	-2.35	-0.01	-14.85	3.68	0.56	-4.08	10.75	0.96	-0.23	-0.46	2.08
1	0.02	0.78	-1.89	24.7	1.18	-1.21	-4.14	-0.5	-15.88	3.26	0.95	-5.83	10.54	0.96	-0.02	-0.78	1.89
